<svg id="container" width="292.5546875" xmlns="http://www.w3.org/2000/svg" class="classDiagram" height="137.5" viewBox="0 0 292.5546875 137.5" role="graphics-document document" aria-roledescription="class"><style>#container{font-family:Arial;font-size:11px;fill:#333;}@keyframes edge-animation-frame{from{stroke-dashoffset:0;}}@keyframes dash{to{stroke-dashoffset:0;}}#container .edge-animation-slow{stroke-dasharray:9,5!important;stroke-dashoffset:900;animation:dash 50s linear infinite;stroke-linecap:round;}#container .edge-animation-fast{stroke-dasharray:9,5!important;stroke-dashoffset:900;animation:dash 20s linear infinite;stroke-linecap:round;}#container .error-icon{fill:#552222;}#container .error-text{fill:#552222;stroke:#552222;}#container .edge-thickness-normal{stroke-width:1px;}#container .edge-thickness-thick{stroke-width:3.5px;}#container .edge-pattern-solid{stroke-dasharray:0;}#container .edge-thickness-invisible{stroke-width:0;fill:none;}#container .edge-pattern-dashed{stroke-dasharray:3;}#container .edge-pattern-dotted{stroke-dasharray:2;}#container .marker{fill:#333333;stroke:#333333;}#container .marker.cross{stroke:#333333;}#container svg{font-family:Arial;font-size:11px;}#container p{margin:0;}#container g.classGroup text{fill:#9370DB;stroke:none;font-family:Arial;font-size:10px;}#container g.classGroup text .title{font-weight:bolder;}#container .nodeLabel,#container .edgeLabel{color:#131300;}#container .edgeLabel .label rect{fill:#ECECFF;}#container .label text{fill:#131300;}#container .labelBkg{background:#ECECFF;}#container .edgeLabel .label span{background:#ECECFF;}#container .classTitle{font-weight:bolder;}#container .node rect,#container .node circle,#container .node ellipse,#container .node polygon,#container .node path{fill:#ECECFF;stroke:#9370DB;stroke-width:1px;}#container .divider{stroke:#9370DB;stroke-width:1;}#container g.clickable{cursor:pointer;}#container g.classGroup rect{fill:#ECECFF;stroke:#9370DB;}#container g.classGroup line{stroke:#9370DB;stroke-width:1;}#container .classLabel .box{stroke:none;stroke-width:0;fill:#ECECFF;opacity:0.5;}#container .classLabel .label{fill:#9370DB;font-size:10px;}#container .relation{stroke:#333333;stroke-width:1;fill:none;}#container .dashed-line{stroke-dasharray:3;}#container .dotted-line{stroke-dasharray:1 2;}#container #compositionStart,#container .composition{fill:#333333!important;stroke:#333333!important;stroke-width:1;}#container #compositionEnd,#container .composition{fill:#333333!important;stroke:#333333!important;stroke-width:1;}#container #dependencyStart,#container .dependency{fill:#333333!important;stroke:#333333!important;stroke-width:1;}#container #dependencyStart,#container .dependency{fill:#333333!important;stroke:#333333!important;stroke-width:1;}#container #extensionStart,#container .extension{fill:transparent!important;stroke:#333333!important;stroke-width:1;}#container #extensionEnd,#container .extension{fill:transparent!important;stroke:#333333!important;stroke-width:1;}#container #aggregationStart,#container .aggregation{fill:transparent!important;stroke:#333333!important;stroke-width:1;}#container #aggregationEnd,#container .aggregation{fill:transparent!important;stroke:#333333!important;stroke-width:1;}#container #lollipopStart,#container .lollipop{fill:#ECECFF!important;stroke:#333333!important;stroke-width:1;}#container #lollipopEnd,#container .lollipop{fill:#ECECFF!important;stroke:#333333!important;stroke-width:1;}#container .edgeTerminals{font-size:11px;line-height:initial;}#container .classTitleText{text-anchor:middle;font-size:18px;fill:#333;}#container .label-icon{display:inline-block;height:1em;overflow:visible;vertical-align:-0.125em;}#container .node .label-icon path{fill:currentColor;stroke:revert;stroke-width:revert;}#container :root{--mermaid-font-family:"trebuchet ms",verdana,arial,sans-serif;}</style><g><defs><marker id="container_class-aggregationStart" class="marker aggregation class" refX="18" refY="7" markerWidth="190" markerHeight="240" orient="auto"><path d="M 18,7 L9,13 L1,7 L9,1 Z"></path></marker></defs><defs><marker id="container_class-aggregationEnd" class="marker aggregation class" refX="1" refY="7" markerWidth="20" markerHeight="28" orient="auto"><path d="M 18,7 L9,13 L1,7 L9,1 Z"></path></marker></defs><defs><marker id="container_class-extensionStart" class="marker extension class" refX="18" refY="7" markerWidth="190" markerHeight="240" orient="auto"><path d="M 1,7 L18,13 V 1 Z"></path></marker></defs><defs><marker id="container_class-extensionEnd" class="marker extension class" refX="1" refY="7" markerWidth="20" markerHeight="28" orient="auto"><path d="M 1,1 V 13 L18,7 Z"></path></marker></defs><defs><marker id="container_class-compositionStart" class="marker composition class" refX="18" refY="7" markerWidth="190" markerHeight="240" orient="auto"><path d="M 18,7 L9,13 L1,7 L9,1 Z"></path></marker></defs><defs><marker id="container_class-compositionEnd" class="marker composition class" refX="1" refY="7" markerWidth="20" markerHeight="28" orient="auto"><path d="M 18,7 L9,13 L1,7 L9,1 Z"></path></marker></defs><defs><marker id="container_class-dependencyStart" class="marker dependency class" refX="6" refY="7" markerWidth="190" markerHeight="240" orient="auto"><path d="M 5,7 L9,13 L1,7 L9,1 Z"></path></marker></defs><defs><marker id="container_class-dependencyEnd" class="marker dependency class" refX="13" refY="7" markerWidth="20" markerHeight="28" orient="auto"><path d="M 18,7 L9,13 L14,7 L9,1 Z"></path></marker></defs><defs><marker id="container_class-lollipopStart" class="marker lollipop class" refX="13" refY="7" markerWidth="190" markerHeight="240" orient="auto"><circle stroke="black" fill="transparent" cx="7" cy="7" r="6"></circle></marker></defs><defs><marker id="container_class-lollipopEnd" class="marker lollipop class" refX="1" refY="7" markerWidth="190" markerHeight="240" orient="auto"><circle stroke="black" fill="transparent" cx="7" cy="7" r="6"></circle></marker></defs><g class="root"><g class="clusters"></g><g class="edgePaths"><path d="M117.258,68.75L122.876,68.75C128.495,68.75,139.732,68.75,149.969,68.75C160.206,68.75,169.443,68.75,174.061,68.75L178.68,68.75" id="id_Experimento_Muestra_1" class="edge-thickness-normal edge-pattern-solid relation" style=";;;" data-edge="true" data-et="edge" data-id="id_Experimento_Muestra_1" data-points="W3sieCI6MTE3LjI1NzgxMjUsInkiOjY4Ljc1fSx7IngiOjE1MC45Njg3NSwieSI6NjguNzV9LHsieCI6MTg0LjY3OTY4NzUsInkiOjY4Ljc1fV0=" marker-end="url(#container_class-dependencyEnd)"></path></g><g class="edgeLabels"><g class="edgeLabel" transform="translate(150.96875, 68.75)"><g class="label" data-id="id_Experimento_Muestra_1" transform="translate(-8.7109375, -8.25)"><foreignObject width="17.421875" height="16.5"><div xmlns="http://www.w3.org/1999/xhtml" class="labelBkg" style="display: table-cell; white-space: nowrap; line-height: 1.5; max-width: 200px; text-align: center;"><span class="edgeLabel"><p>usa</p></span></div></foreignObject></g></g></g><g class="nodes"><g class="node default" id="classId-Experimento-0" transform="translate(62.62890625, 68.75)"><g class="basic label-container"><path d="M-54.62890625 -60.75 L54.62890625 -60.75 L54.62890625 60.75 L-54.62890625 60.75" stroke="none" stroke-width="0" fill="#ECECFF" style=""></path><path d="M-54.62890625 -60.75 C-27.301602923528918 -60.75, 0.02570040294216369 -60.75, 54.62890625 -60.75 M-54.62890625 -60.75 C-15.624683625372406 -60.75, 23.37953899925519 -60.75, 54.62890625 -60.75 M54.62890625 -60.75 C54.62890625 -14.100229086475814, 54.62890625 32.54954182704837, 54.62890625 60.75 M54.62890625 -60.75 C54.62890625 -12.878817847408051, 54.62890625 34.9923643051839, 54.62890625 60.75 M54.62890625 60.75 C19.789862826442665 60.75, -15.04918059711467 60.75, -54.62890625 60.75 M54.62890625 60.75 C17.47453689009513 60.75, -19.67983246980974 60.75, -54.62890625 60.75 M-54.62890625 60.75 C-54.62890625 17.035015857851945, -54.62890625 -26.67996828429611, -54.62890625 -60.75 M-54.62890625 60.75 C-54.62890625 22.99874561508235, -54.62890625 -14.752508769835302, -54.62890625 -60.75" stroke="#9370DB" stroke-width="1.3" fill="none" stroke-dasharray="0 0" style=""></path></g><g class="annotation-group text" transform="translate(0, -36.75)"></g><g class="label-group text" transform="translate(-31.8828125, -36.75)"><g class="label" style="font-weight: bolder" transform="translate(0,-8.25)"><foreignObject width="63.765625" height="16.5"><div xmlns="http://www.w3.org/1999/xhtml" style="display: table-cell; white-space: nowrap; line-height: 1.5; max-width: 142px; text-align: center;"><span class="nodeLabel markdown-node-label" style=""><p>Experimento</p></span></div></foreignObject></g></g><g class="members-group text" transform="translate(-42.62890625, 3.75)"><g class="label" style="" transform="translate(0,-8.25)"><foreignObject width="44.234375" height="16.5"><div xmlns="http://www.w3.org/1999/xhtml" style="display: table-cell; white-space: nowrap; line-height: 1.5; max-width: 122px; text-align: center;"><span class="nodeLabel markdown-node-label" style=""><p>+nombre</p></span></div></foreignObject></g></g><g class="methods-group text" transform="translate(-42.62890625, 44.25)"><g class="label" style="" transform="translate(0,-8.25)"><foreignObject width="53.375" height="16.5"><div xmlns="http://www.w3.org/1999/xhtml" style="display: table-cell; white-space: nowrap; line-height: 1.5; max-width: 135px; text-align: center;"><span class="nodeLabel markdown-node-label" style=""><p>+ejecutar()</p></span></div></foreignObject></g></g><g class="divider" style=""><path d="M-54.62890625 -20.25 C-19.771132326268656 -20.25, 15.086641597462688 -20.25, 54.62890625 -20.25 M-54.62890625 -20.25 C-26.961847701518312 -20.25, 0.7052108469633751 -20.25, 54.62890625 -20.25" stroke="#9370DB" stroke-width="1.3" fill="none" stroke-dasharray="0 0" style=""></path></g><g class="divider" style=""><path d="M-54.62890625 20.25 C-19.75292875676535 20.25, 15.1230487364693 20.25, 54.62890625 20.25 M-54.62890625 20.25 C-26.480108408689293 20.25, 1.668689432621413 20.25, 54.62890625 20.25" stroke="#9370DB" stroke-width="1.3" fill="none" stroke-dasharray="0 0" style=""></path></g></g><g class="node default" id="classId-Muestra-1" transform="translate(234.6171875, 68.75)"><g class="basic label-container"><path d="M-49.9375 -60.75 L49.9375 -60.75 L49.9375 60.75 L-49.9375 60.75" stroke="none" stroke-width="0" fill="#ECECFF" style=""></path><path d="M-49.9375 -60.75 C-12.12676668865224 -60.75, 25.68396662269552 -60.75, 49.9375 -60.75 M-49.9375 -60.75 C-23.008877569447744 -60.75, 3.919744861104512 -60.75, 49.9375 -60.75 M49.9375 -60.75 C49.9375 -36.24006292932519, 49.9375 -11.730125858650375, 49.9375 60.75 M49.9375 -60.75 C49.9375 -20.389426684842526, 49.9375 19.971146630314948, 49.9375 60.75 M49.9375 60.75 C26.877632299408138 60.75, 3.817764598816275 60.75, -49.9375 60.75 M49.9375 60.75 C27.977712043985782 60.75, 6.017924087971565 60.75, -49.9375 60.75 M-49.9375 60.75 C-49.9375 30.831525699237037, -49.9375 0.9130513984740745, -49.9375 -60.75 M-49.9375 60.75 C-49.9375 17.580342883607578, -49.9375 -25.589314232784844, -49.9375 -60.75" stroke="#9370DB" stroke-width="1.3" fill="none" stroke-dasharray="0 0" style=""></path></g><g class="annotation-group text" transform="translate(0, -36.75)"></g><g class="label-group text" transform="translate(-20.3125, -36.75)"><g class="label" style="font-weight: bolder" transform="translate(0,-8.25)"><foreignObject width="40.625" height="16.5"><div xmlns="http://www.w3.org/1999/xhtml" style="display: table-cell; white-space: nowrap; line-height: 1.5; max-width: 108px; text-align: center;"><span class="nodeLabel markdown-node-label" style=""><p>Muestra</p></span></div></foreignObject></g></g><g class="members-group text" transform="translate(-37.9375, 3.75)"><g class="label" style="" transform="translate(0,-8.25)"><foreignObject width="25.46875" height="16.5"><div xmlns="http://www.w3.org/1999/xhtml" style="display: table-cell; white-space: nowrap; line-height: 1.5; max-width: 94px; text-align: center;"><span class="nodeLabel markdown-node-label" style=""><p>+tipo</p></span></div></foreignObject></g></g><g class="methods-group text" transform="translate(-37.9375, 44.25)"><g class="label" style="" transform="translate(0,-8.25)"><foreignObject width="55.5625" height="16.5"><div xmlns="http://www.w3.org/1999/xhtml" style="display: table-cell; white-space: nowrap; line-height: 1.5; max-width: 138px; text-align: center;"><span class="nodeLabel markdown-node-label" style=""><p>+preparar()</p></span></div></foreignObject></g></g><g class="divider" style=""><path d="M-49.9375 -20.25 C-29.0807519270788 -20.25, -8.224003854157601 -20.25, 49.9375 -20.25 M-49.9375 -20.25 C-11.09235994292289 -20.25, 27.75278011415422 -20.25, 49.9375 -20.25" stroke="#9370DB" stroke-width="1.3" fill="none" stroke-dasharray="0 0" style=""></path></g><g class="divider" style=""><path d="M-49.9375 20.25 C-21.32740355891488 20.25, 7.282692882170238 20.25, 49.9375 20.25 M-49.9375 20.25 C-27.262701974023948 20.25, -4.587903948047895 20.25, 49.9375 20.25" stroke="#9370DB" stroke-width="1.3" fill="none" stroke-dasharray="0 0" style=""></path></g></g></g></g></g></svg>